<svg width="130" height="125" viewBox="0 0 130 125" fill="none" xmlns="http://www.w3.org/2000/svg">
<g filter="url(#filter0_d_2315_9900)">
<path d="M85.6497 45.6572C85.6222 39.2245 80.5734 34 74.3719 34C70.3588 34 66.8284 36.188 64.829 39.4752C62.8296 36.188 59.2992 34 55.286 34C49.0844 34 44.0358 39.2245 44.0081 45.6572C43.9781 46.2784 43.9164 49.9108 46.199 54.4686C48.3901 58.8438 53.2856 65.0403 64.1656 69.7149L64.829 70L65.4925 69.7149C76.3723 65.0403 81.268 58.8438 83.4591 54.4686C85.7414 49.9108 85.6799 46.2784 85.6497 45.6572Z" fill="#F83939"/>
<path d="M64.0394 71.8375L64.829 72.1768L65.6186 71.8375L66.282 71.5525C66.282 71.5525 66.282 71.5525 66.282 71.5525C77.5882 66.6947 82.8414 60.1684 85.2473 55.3642L85.2474 55.3641C87.6853 50.4956 87.6894 46.5477 87.6495 45.6063C87.5955 38.163 81.731 32 74.3719 32C70.612 32 67.2334 33.6185 64.829 36.1855C62.4247 33.6185 59.0461 32 55.286 32C47.9267 32 42.0623 38.1632 42.0083 45.6066C41.9688 46.5462 41.972 50.4945 44.4108 55.3642C46.8167 60.1684 52.0697 66.6947 63.376 71.5525C63.3761 71.5525 63.3761 71.5525 63.3761 71.5525L64.0394 71.8375Z" stroke="white" stroke-width="4"/>
</g>
<path d="M61.7274 56.5888V58.709H55.1885V46.8916H57.5202V56.5888H61.7274Z" fill="white"/>
<path d="M63.9156 49.0118H60.8405V46.8916H69.2886V49.0118H66.2473V58.709H63.9156V49.0118Z" fill="white"/>
<path d="M73.0965 48.977V52.4527H77.1855V54.5381H73.0965V58.709H70.7648V46.8916H78.0979V48.977H73.0965Z" fill="white"/>
<defs>
<filter id="filter0_d_2315_9900" x="0" y="0" width="129.658" height="124.354" filterUnits="userSpaceOnUse" color-interpolation-filters="sRGB">
<feFlood flood-opacity="0" result="BackgroundImageFix"/>
<feColorMatrix in="SourceAlpha" type="matrix" values="0 0 0 0 0 0 0 0 0 0 0 0 0 0 0 0 0 0 127 0" result="hardAlpha"/>
<feOffset dy="10"/>
<feGaussianBlur stdDeviation="20"/>
<feColorMatrix type="matrix" values="0 0 0 0 0 0 0 0 0 0 0 0 0 0 0 0 0 0 0.1 0"/>
<feBlend mode="normal" in2="BackgroundImageFix" result="effect1_dropShadow_2315_9900"/>
<feBlend mode="normal" in="SourceGraphic" in2="effect1_dropShadow_2315_9900" result="shape"/>
</filter>
</defs>
</svg>
