<svg width="100" height="100" viewBox="0 0 100 100" fill="none" xmlns="http://www.w3.org/2000/svg">
<rect width="100" height="100" fill="white"/>
<path d="M95.6407 36.9154C95.5803 23.3317 84.508 12.2993 70.9075 12.2993C62.1065 12.2993 54.3639 16.9196 49.9792 23.8611C45.5941 16.9196 37.8519 12.2993 29.0506 12.2993C15.4498 12.2993 4.37776 23.3317 4.31703 36.9154C4.25138 38.2272 4.11604 45.8976 9.12197 55.5222C13.9272 64.7611 24.6635 77.8461 48.5242 87.7174L49.9792 88.3194L51.4341 87.7174C75.2946 77.8461 86.0311 64.7611 90.8364 55.5222C95.8417 45.8976 95.707 38.2272 95.6407 36.9154Z" fill="#F83939"/>
<path d="M40.0618 58.5626V62.804H26.8704V39.1631H31.5743V58.5626H40.0618Z" fill="white"/>
<path d="M44.4763 43.4046H38.2726V39.1631H55.3158V43.4046H49.1803V62.804H44.4763V43.4046Z" fill="white"/>
<path d="M62.9978 43.335V50.2882H71.2467V54.4602H62.9978V62.804H58.2939V39.1631H73.0874V43.335H62.9978Z" fill="white"/>
<path d="M99.9789 36.799C99.8714 20.8951 86.8662 8 70.9589 8C63.0053 8 55.4816 11.2238 50 16.9191C44.5184 11.2238 36.9947 8 29.0411 8C13.1338 8 0.128567 20.8951 0.0210852 36.799C-0.0863963 39.0556 0.0210853 47.33 5.28768 57.5386C10.4468 67.4248 21.8398 81.3944 46.883 91.7105L50 93L53.117 91.7105C78.1602 81.3944 89.5532 67.4248 94.7123 57.5386C99.9789 47.2225 100.086 39.0556 99.9789 36.799ZM90.843 55.4968C86.0063 64.7383 75.3656 77.8483 51.5047 87.7345L50 88.3793L48.4953 87.7345C24.6344 77.8483 13.9937 64.7383 9.15702 55.4968C4.21286 46.0405 4.32035 38.4109 4.32035 36.9064C4.42783 23.3666 15.4984 12.2984 29.0411 12.2984C36.5648 12.2984 43.5511 15.6296 48.2803 21.5398L50 23.5815L51.7197 21.5398C56.4489 15.6296 63.4352 12.2984 70.9589 12.2984C84.5016 12.2984 95.5722 23.3666 95.6797 36.9064C95.6797 38.4109 95.7871 46.0405 90.843 55.4968Z" fill="white"/>
</svg>
